<svg xmlns="http://www.w3.org/2000/svg" viewBox="0 0 800 450" role="img"><defs><linearGradient id="b" x2="1" y2="1"><stop stop-color="#28395d"/><stop offset="1" stop-color="#101827"/></linearGradient></defs><rect width="800" height="450" fill="url(#b)"/><circle cx="670" cy="70" r="110" fill="#ff5b3f" opacity=".22"/><g transform="translate(285 45) rotate(5 115 175)"><rect width="230" height="350" rx="28" fill="#d9e0ec"/><rect x="25" y="28" width="180" height="78" rx="8" fill="#4c6984"/><path d="M48 83c35-35 62 8 98-24 17-14 26-10 36-2" fill="none" stroke="#a6d08e" stroke-width="5"/><g fill="#5a6780"><circle cx="50" cy="142" r="14"/><circle cx="95" cy="142" r="14"/><circle cx="140" cy="142" r="14"/><circle cx="185" cy="142" r="14"/><circle cx="50" cy="187" r="14"/><circle cx="95" cy="187" r="14"/><circle cx="140" cy="187" r="14"/><circle cx="185" cy="187" r="14"/><circle cx="50" cy="232" r="14"/><circle cx="95" cy="232" r="14"/><circle cx="140" cy="232" r="14"/><circle cx="185" cy="232" r="14"/></g><rect x="31" y="272" width="51" height="51" rx="12" fill="#ff724f"/><rect x="91" y="272" width="108" height="51" rx="12" fill="#8798b5"/></g></svg>
